<?xml version="1.0" encoding="utf-8"?>
<!-- Generator: Adobe Illustrator 28.0.0, SVG Export Plug-In . SVG Version: 6.00 Build 0)  -->
<svg version="1.1" id="Layer_1" xmlns="http://www.w3.org/2000/svg" xmlns:xlink="http://www.w3.org/1999/xlink" x="0px" y="0px"
	 viewBox="0 0 1920 1080" style="enable-background:new 0 0 1920 1080;" xml:space="preserve">
<style type="text/css">
	.st0{fill:#FFFFFF;}
</style>
<g>
	<path d="M48,48c-10.67,0-21.33,0-32,0c0-10.67,0-21.33,0-32c10.67,0,21.33,0,32,0C48,26.67,48,37.33,48,48z M35.41,34.57
		c-0.09,0-0.14,0-0.2,0c-0.49,0-0.98,0-1.47,0.01c-0.21,0-0.28,0.07-0.28,0.28c0,0.35,0,0.7,0,1.05c0,0.24,0.07,0.31,0.3,0.31
		c0.61,0,1.22,0.01,1.83,0c0.14,0,0.19,0.04,0.22,0.17c0.1,0.47,0.21,0.93,0.33,1.39c0.03,0.11,0.08,0.19,0.21,0.19
		c0.41,0,0.81,0,1.22,0c0.14,0,0.2-0.08,0.18-0.21c-0.01-0.05-0.02-0.1-0.03-0.15c-0.2-0.86-0.4-1.72-0.61-2.59
		c-0.31-1.33-0.62-2.66-0.94-3.99c-0.27-1.16-0.55-2.32-0.83-3.48c-0.05-0.22-0.1-0.25-0.32-0.26c-0.24,0-0.49,0-0.73-0.01
		c-0.26,0-0.34,0.05-0.41,0.3c-0.09,0.31-0.17,0.61-0.25,0.92c-0.07,0.27-0.16,0.54-0.17,0.82c-0.02,1.11,0,2.23,0,3.34
		c0,0.08-0.03,0.2,0.09,0.21c0.04,0,0.11-0.12,0.13-0.19c0.2-0.84,0.38-1.68,0.57-2.51c0.01-0.06,0.03-0.11,0.05-0.17
		c0.02,0,0.03,0,0.05,0C34.7,31.53,35.05,33.04,35.41,34.57z M31.88,31.78C31.88,31.78,31.88,31.78,31.88,31.78
		c0-1.42,0-2.83,0-4.25c0-0.19-0.06-0.24-0.24-0.24c-0.35,0-0.7,0-1.05,0.01c-0.24,0-0.29,0.05-0.29,0.3c0,2.72-0.01,5.45,0,8.17
		c0,0.42-0.41,0.71-0.71,0.7c-0.37-0.01-0.7-0.33-0.7-0.71c0-0.31,0-0.62-0.01-0.94c0-0.18-0.07-0.25-0.24-0.25
		c-0.36,0-0.73,0-1.09,0.01c-0.17,0-0.24,0.07-0.24,0.24c0,0.37-0.02,0.75,0.01,1.12c0.02,0.24,0.06,0.5,0.16,0.72
		c0.52,1.15,1.84,1.65,3.03,1.16c0.71-0.29,1.41-1.14,1.39-2.05C31.85,34.44,31.88,33.11,31.88,31.78z"/>
	<path class="st0" d="M35.41,34.57c-0.36-1.54-0.71-3.04-1.06-4.55c-0.02,0-0.03,0-0.05,0c-0.02,0.06-0.04,0.11-0.05,0.17
		c-0.19,0.84-0.38,1.68-0.57,2.51c-0.02,0.07-0.09,0.2-0.13,0.19c-0.12-0.01-0.09-0.13-0.09-0.21c0-1.11-0.02-2.23,0-3.34
		c0-0.27,0.1-0.55,0.17-0.82c0.07-0.31,0.16-0.62,0.25-0.92c0.07-0.25,0.15-0.31,0.41-0.3c0.24,0,0.49,0,0.73,0.01
		c0.22,0,0.27,0.04,0.32,0.26c0.28,1.16,0.56,2.32,0.83,3.48c0.31,1.33,0.62,2.66,0.94,3.99c0.2,0.86,0.4,1.72,0.61,2.59
		c0.01,0.05,0.02,0.1,0.03,0.15c0.01,0.13-0.05,0.21-0.18,0.21c-0.41,0-0.81,0-1.22,0c-0.13,0-0.18-0.09-0.21-0.19
		c-0.11-0.46-0.22-0.93-0.33-1.39c-0.03-0.13-0.08-0.18-0.22-0.17c-0.61,0.01-1.22,0-1.83,0c-0.24,0-0.3-0.07-0.3-0.31
		c0-0.35,0-0.7,0-1.05c0-0.21,0.07-0.28,0.28-0.28c0.49,0,0.98,0,1.47-0.01C35.27,34.57,35.32,34.57,35.41,34.57z"/>
	<path class="st0" d="M31.88,31.78c0,1.33-0.03,2.66,0.01,3.98c0.02,0.92-0.68,1.77-1.39,2.05c-1.19,0.49-2.51-0.01-3.03-1.16
		c-0.1-0.22-0.14-0.48-0.16-0.72c-0.03-0.37-0.01-0.75-0.01-1.12c0-0.17,0.07-0.24,0.24-0.24c0.36,0,0.73-0.01,1.09-0.01
		c0.17,0,0.24,0.07,0.24,0.25c0,0.31,0,0.62,0.01,0.94c0,0.38,0.33,0.71,0.7,0.71c0.3,0,0.71-0.28,0.71-0.7
		c-0.01-2.72,0-5.45,0-8.17c0-0.24,0.05-0.3,0.29-0.3c0.35,0,0.7,0,1.05-0.01c0.18,0,0.24,0.06,0.24,0.24
		C31.88,28.95,31.88,30.37,31.88,31.78C31.88,31.78,31.88,31.78,31.88,31.78z"/>
</g>
</svg>
