<svg width="246" height="61" viewBox="0 0 246 61" fill="none" xmlns="http://www.w3.org/2000/svg">
<path d="M12.9264 35.5096V32.3438H14.9878C15.9204 32.3438 16.6321 32.0861 17.1229 31.5708C17.6383 31.0554 17.896 30.3437 17.896 29.4357V8.34243H21.2827V28.9203C21.2827 30.5646 21.0495 31.8653 20.5833 32.8224C20.1415 33.7795 19.4175 34.4666 18.4114 34.8838C17.4297 35.301 16.1167 35.5096 14.4725 35.5096H12.9264ZM14.8038 11.1401V8.34243H21.2827V11.1401H14.8038ZM18.7427 4.88211C17.9573 4.88211 17.3683 4.67351 16.9757 4.25631C16.6076 3.83911 16.4235 3.31147 16.4235 2.6734C16.4235 2.03532 16.6076 1.50769 16.9757 1.09049C17.3683 0.673284 17.9573 0.464683 18.7427 0.464683C19.528 0.464683 20.1047 0.673284 20.4728 1.09049C20.8655 1.50769 21.0618 2.03532 21.0618 2.6734C21.0618 3.31147 20.8655 3.83911 20.4728 4.25631C20.1047 4.67351 19.528 4.88211 18.7427 4.88211ZM39.9604 28V22.1101H39.3714V15.2999C39.3714 13.9501 39.0156 12.9317 38.3039 12.2445C37.6167 11.5573 36.5983 11.2138 35.2485 11.2138C34.4877 11.2138 33.7024 11.226 32.8925 11.2506C32.0827 11.2751 31.3096 11.2997 30.5734 11.3242C29.8371 11.3487 29.1991 11.3856 28.6592 11.4346V8.34243C29.1991 8.29335 29.7635 8.25654 30.3525 8.232C30.966 8.18292 31.5918 8.15837 32.2299 8.15837C32.868 8.13383 33.4815 8.12156 34.0705 8.12156C36.0829 8.12156 37.7272 8.36697 39.0033 8.8578C40.2795 9.32408 41.2243 10.0971 41.8378 11.177C42.4514 12.2568 42.7581 13.717 42.7581 15.5576V28H39.9604ZM33.5183 28.5154C32.0459 28.5154 30.7697 28.27 29.6899 27.7791C28.6346 27.2638 27.8125 26.5275 27.2235 25.5704C26.659 24.6133 26.3768 23.4599 26.3768 22.1101C26.3768 20.7112 26.6836 19.5455 27.2971 18.613C27.9352 17.6804 28.8555 16.981 30.058 16.5147C31.2605 16.0239 32.7085 15.7784 34.4018 15.7784H39.7395V18.4289H34.2546C32.8312 18.4289 31.7391 18.7725 30.9783 19.4596C30.2175 20.1468 29.8371 21.0303 29.8371 22.1101C29.8371 23.1899 30.2175 24.0611 30.9783 24.7237C31.7391 25.3864 32.8312 25.7177 34.2546 25.7177C35.089 25.7177 35.8866 25.5704 36.6473 25.2759C37.4081 24.9569 38.0339 24.4415 38.5248 23.7298C39.0401 22.9936 39.3223 21.9874 39.3714 20.7112L40.3285 22.1101C40.2058 23.5089 39.8623 24.6869 39.2978 25.644C38.7579 26.5766 37.9971 27.2883 37.0155 27.7791C36.0584 28.27 34.8926 28.5154 33.5183 28.5154ZM49.2442 28V8.34243H52.0419V16.7724H51.6002C51.6002 14.8581 51.8456 13.2384 52.3364 11.9132C52.8518 10.5634 53.6126 9.53269 54.6188 8.82099C55.6249 8.10929 56.9011 7.75344 58.4472 7.75344H58.5944C60.1405 7.75344 61.4167 8.10929 62.4229 8.82099C63.4536 9.53269 64.2144 10.5634 64.7052 11.9132C65.196 13.2384 65.4415 14.8581 65.4415 16.7724H64.4107C64.4107 14.8581 64.6684 13.2384 65.1838 11.9132C65.6991 10.5634 66.4599 9.53269 67.4661 8.82099C68.4968 8.10929 69.7853 7.75344 71.3314 7.75344H71.4786C73.0247 7.75344 74.3131 8.10929 75.3439 8.82099C76.3746 9.53269 77.1354 10.5634 77.6262 11.9132C78.1416 13.2384 78.3993 14.8581 78.3993 16.7724V28H74.8653V15.9993C74.8653 14.4041 74.4726 13.1771 73.6873 12.3181C72.902 11.4346 71.8099 10.9929 70.4111 10.9929C68.9631 10.9929 67.7974 11.4592 66.9139 12.3917C66.0304 13.2998 65.5887 14.5759 65.5887 16.2202V28H62.0548V15.9993C62.0548 14.4041 61.6621 13.1771 60.8768 12.3181C60.0915 11.4346 58.9994 10.9929 57.6005 10.9929C56.1526 10.9929 54.9869 11.4592 54.1034 12.3917C53.2199 13.2998 52.7782 14.5759 52.7782 16.2202V28H49.2442ZM93.2261 28.6626C91.5082 28.6626 90.0235 28.3681 88.7719 27.7791C87.5203 27.1901 86.5018 26.4171 85.7165 25.46C84.9312 24.4783 84.3422 23.3862 83.9495 22.1837C83.5814 20.9812 83.3973 19.7541 83.3973 18.5025V17.8399C83.3973 16.5638 83.5814 15.3244 83.9495 14.1219C84.3422 12.9194 84.9312 11.8396 85.7165 10.8825C86.5018 9.90081 87.4957 9.12776 88.6983 8.56331C89.9253 7.97431 91.361 7.67982 93.0052 7.67982C95.1403 7.67982 96.895 8.1461 98.2694 9.07867C99.6682 9.9867 100.699 11.1647 101.362 12.6126C102.049 14.0606 102.392 15.6067 102.392 17.2509V18.8338H84.9434V16.1834H99.8155L99.0056 17.619C99.0056 16.2202 98.7847 15.0177 98.343 14.0115C97.9012 12.9807 97.2386 12.1831 96.3551 11.6187C95.4716 11.0542 94.355 10.772 93.0052 10.772C91.6064 10.772 90.4407 11.0911 89.5081 11.7291C88.6001 12.3672 87.9129 13.2384 87.4466 14.3428C87.0049 15.4471 86.784 16.7233 86.784 18.1712C86.784 19.5701 87.0049 20.8339 87.4466 21.9628C87.9129 23.0672 88.6246 23.9507 89.5817 24.6133C90.5388 25.2514 91.7536 25.5704 93.2261 25.5704C94.7722 25.5704 96.0238 25.2268 96.9809 24.5397C97.9626 23.8525 98.5516 23.0549 98.7479 22.1469H102.061C101.791 23.4967 101.251 24.6624 100.441 25.644C99.6314 26.6257 98.6129 27.3742 97.3859 27.8896C96.1588 28.4049 94.7722 28.6626 93.2261 28.6626ZM113.852 28.589C111.275 28.589 109.275 28.0368 107.852 26.9325C106.453 25.8281 105.729 24.3188 105.68 22.4046H108.993C109.042 23.1654 109.422 23.8893 110.134 24.5765C110.87 25.2391 112.11 25.5704 113.852 25.5704C115.423 25.5704 116.625 25.2636 117.46 24.6501C118.294 24.012 118.711 23.239 118.711 22.331C118.711 21.5211 118.404 20.8953 117.791 20.4536C117.177 19.9873 116.183 19.6805 114.809 19.5333L112.674 19.3124C110.809 19.1161 109.287 18.5639 108.109 17.6558C106.931 16.7233 106.342 15.4226 106.342 13.7538C106.342 12.5022 106.661 11.4346 107.299 10.5511C107.938 9.64312 108.821 8.95597 109.95 8.48968C111.079 7.99886 112.38 7.75344 113.852 7.75344C116.061 7.75344 117.852 8.24427 119.227 9.22592C120.601 10.2076 121.313 11.6678 121.362 13.6065H118.049C118.024 12.8212 117.656 12.1586 116.944 11.6187C116.257 11.0542 115.226 10.772 113.852 10.772C112.478 10.772 111.435 11.0542 110.723 11.6187C110.011 12.1831 109.655 12.8948 109.655 13.7538C109.655 14.49 109.901 15.079 110.392 15.5208C110.907 15.9625 111.741 16.2447 112.895 16.3674L115.03 16.5883C117.141 16.8092 118.834 17.3982 120.11 18.3553C121.386 19.2878 122.024 20.6131 122.024 22.331C122.024 23.558 121.668 24.6501 120.957 25.6072C120.27 26.5398 119.312 27.276 118.085 27.8159C116.858 28.3313 115.447 28.589 113.852 28.589ZM133.933 22.6616C133.933 18.9109 136.425 17.0355 141.41 17.0355C143.172 17.0355 145.053 17.1553 147.054 17.395V15.0763C147.054 12.1884 145.239 10.7444 141.608 10.7444C139.667 10.7444 137.678 11.044 135.64 11.6431V10.0254C137.678 9.42628 139.667 9.1267 141.608 9.1267C146.497 9.1267 148.942 11.0799 148.942 14.9864V28H147.791L147.36 26.1306C144.999 27.3769 142.71 28 140.494 28C136.12 28 133.933 26.2205 133.933 22.6616ZM141.41 18.6532C137.684 18.6532 135.82 19.9714 135.82 22.6076C135.82 25.1241 137.378 26.3823 140.494 26.3823C142.794 26.3823 144.981 25.7712 147.054 24.5489V19.0127C145.053 18.7731 143.172 18.6532 141.41 18.6532ZM154.712 28V9.1267H156.06L156.293 12.2543C158.187 10.1692 160.296 9.1267 162.62 9.1267V10.6366C160.368 10.6366 158.36 11.733 156.599 13.9259V28H154.712ZM179.804 27.4608C178.246 27.8203 176.569 28 174.771 28C168.42 28 165.245 24.7346 165.245 18.2039C165.245 12.1524 168.42 9.1267 174.771 9.1267C176.569 9.1267 178.246 9.30645 179.804 9.66594V11.2836C178.126 10.9242 176.509 10.7444 174.951 10.7444C169.858 10.7444 167.312 13.2309 167.312 18.2039C167.312 23.6561 169.858 26.3823 174.951 26.3823C176.509 26.3823 178.126 26.2025 179.804 25.8431V27.4608ZM184.226 28V2.29636H186.113V11.1758C188.318 9.80973 190.577 9.1267 192.889 9.1267C197.479 9.1267 199.774 11.4694 199.774 16.1548V28H197.886V15.3819C197.886 12.3382 196.191 10.8163 192.8 10.8163C190.535 10.8163 188.306 11.6132 186.113 13.2069V28H184.226ZM213.147 9.1267C218.312 9.1267 220.894 11.9847 220.894 17.7006C220.894 18.108 220.882 18.5334 220.858 18.9768H206.532C206.532 23.9138 209.145 26.3823 214.369 26.3823C216.514 26.3823 218.419 26.0827 220.085 25.4836V27.1013C218.419 27.7004 216.514 28 214.369 28C207.886 28 204.645 24.7826 204.645 18.3477C204.645 12.2004 207.479 9.1267 213.147 9.1267ZM206.532 17.2872H219.078C219.007 12.9014 217.029 10.7085 213.147 10.7085C208.953 10.7085 206.748 12.9014 206.532 17.2872ZM225.747 28V9.1267H227.095L227.329 12.2543C229.222 10.1692 231.331 9.1267 233.656 9.1267V10.6366C231.403 10.6366 229.396 11.733 227.634 13.9259V28H225.747Z" fill="white"/>
<feFlood flood-opacity="0" result="BackgroundImageFix"/>
<feColorMatrix in="SourceAlpha" type="matrix" values="0 0 0 0 0 0 0 0 0 0 0 0 0 0 0 0 0 0 127 0" result="hardAlpha"/>
<feOffset dy="12.2706"/>
<feGaussianBlur stdDeviation="6.13532"/>
<feComposite in2="hardAlpha" operator="out"/>
<feColorMatrix type="matrix" values="0 0 0 0 0 0 0 0 0 0 0 0 0 0 0 0 0 0 0.25 0"/>
<feBlend mode="normal" in2="BackgroundImageFix" result="effect1_dropShadow_1_2"/>
<feBlend mode="normal" in="SourceGraphic" in2="effect1_dropShadow_1_2" result="shape"/>
</svg>
